<svg id="Camada_1" data-name="Camada 1" xmlns="http://www.w3.org/2000/svg" viewBox="0 0 822.64 175.09"><defs><style>.cls-1{font-size:154.95px;fill:#243353;font-family:Exo2-SemiBold, "Exo 2";font-weight:600;}.cls-2,.cls-3{fill:#ef7642;}.cls-2{font-family:Exo2-Regular, "Exo 2";font-weight:400;}</style></defs><text class="cls-1" transform="translate(173.11 130.93)">Lumos.<tspan class="cls-2" x="512.55" y="0">AI</tspan></text><path class="cls-3" d="M57.71,82.21l49.14-55H56.42l-3,53.19A2.44,2.44,0,0,0,57.71,82.21Z" transform="translate(-16.13 -23.84)"/><path class="cls-3" d="M37.9,82.21a2.45,2.45,0,0,0,4.27-1.77l-3-53.19H16.13V57.86Z" transform="translate(-16.13 -23.84)"/><path class="cls-3" d="M57.71,118a2.44,2.44,0,0,0-4.26,1.77l3,53.19h50.43Z" transform="translate(-16.13 -23.84)"/><path class="cls-3" d="M65.69,90.19a2.44,2.44,0,0,0,1.77,4.26l94.35-5.27V27.25H136.08Z" transform="translate(-16.13 -23.84)"/><path class="cls-3" d="M67.46,105.74A2.44,2.44,0,0,0,65.69,110l70.39,62.94h25.73V111Z" transform="translate(-16.13 -23.84)"/><path class="cls-3" d="M42.17,119.75A2.45,2.45,0,0,0,37.9,118L16.13,142.33v30.61H39.19Z" transform="translate(-16.13 -23.84)"/><path class="cls-3" d="M29.92,90.19,16.13,77.86V93.78l12,.67A2.44,2.44,0,0,0,29.92,90.19Z" transform="translate(-16.13 -23.84)"/><path class="cls-3" d="M28.15,105.74l-12,.67v15.92L29.92,110A2.44,2.44,0,0,0,28.15,105.74Z" transform="translate(-16.13 -23.84)"/></svg>